<?xml version="1.0" standalone="no"?>
<!DOCTYPE svg PUBLIC "-//W3C//DTD SVG 20010904//EN"
 "http://www.w3.org/TR/2001/REC-SVG-20010904/DTD/svg10.dtd">
<svg version="1.0" xmlns="http://www.w3.org/2000/svg"
 width="188.000000pt" height="188.000000pt" viewBox="0 0 188.000000 188.000000"
 preserveAspectRatio="xMidYMid meet">
<metadata>
Created by potrace 1.11, written by Peter Selinger 2001-2013
</metadata>
<g transform="translate(0.000000,188.000000) scale(0.100000,-0.100000)"
fill="#000000" stroke="none">
<path d="M945 1820 c-3 -6 1 -7 9 -4 18 7 21 14 7 14 -6 0 -13 -4 -16 -10z"/>
<path d="M1055 1821 c-3 -5 -2 -12 3 -15 5 -3 9 1 9 9 0 17 -3 19 -12 6z"/>
<path d="M915 1810 c-4 -6 -11 -7 -17 -4 -7 5 -8 2 -3 -6 6 -10 1 -12 -19 -8
-14 3 -26 2 -26 -2 0 -4 -13 -7 -29 -8 -17 0 -39 -6 -50 -12 -14 -7 -21 -7
-21 0 0 5 5 10 12 10 6 0 8 3 5 7 -4 3 -17 -4 -28 -16 -17 -18 -23 -20 -30 -9
-5 7 -9 8 -9 2 0 -15 -99 -66 -113 -57 -7 3 -9 3 -5 -2 4 -4 0 -14 -9 -20 -14
-11 -20 -10 -29 4 -11 14 -12 14 -11 -4 1 -11 -4 -20 -10 -21 -7 -1 -14 -2
-15 -4 -2 -1 -34 -7 -71 -14 -67 -12 -68 -12 -63 8 4 18 3 19 -7 6 -7 -8 -25
-16 -42 -17 -34 -3 -55 -26 -55 -61 0 -15 -4 -21 -12 -16 -7 4 -8 3 -4 -4 10
-17 -4 -63 -18 -55 -8 4 -7 2 1 -7 8 -8 9 -20 2 -37 -5 -13 -8 -27 -7 -31 1
-4 -2 -29 -7 -56 -4 -27 -9 -65 -10 -85 -2 -20 -4 -38 -5 -41 -1 -3 -1 -20 0
-39 1 -25 -1 -31 -12 -25 -10 6 -11 5 -2 -7 6 -8 11 -51 10 -102 -1 -48 3 -87
7 -87 5 0 5 -5 2 -10 -4 -6 -11 -7 -17 -4 -7 4 -8 2 -4 -5 4 -6 11 -9 16 -6
13 8 18 -68 6 -84 -9 -12 -8 -13 3 -6 11 6 13 3 9 -13 -4 -12 -2 -20 3 -16 5
3 9 -2 9 -11 0 -10 -5 -14 -12 -10 -7 4 -5 0 6 -9 12 -10 17 -23 14 -40 -3
-14 -2 -24 1 -21 4 2 15 -20 25 -48 10 -29 33 -83 52 -120 19 -37 31 -73 28
-79 -4 -6 -3 -8 4 -4 6 3 20 -7 31 -23 23 -31 27 -46 11 -36 -5 3 -10 1 -10
-5 0 -7 6 -10 14 -7 16 6 46 -22 46 -43 0 -7 3 -11 6 -8 3 4 21 -10 39 -30 24
-26 30 -39 22 -45 -8 -6 -6 -7 6 -3 19 6 70 -31 61 -45 -3 -5 2 -6 10 -3 11 4
19 -2 25 -17 5 -13 10 -18 10 -11 1 18 21 4 21 -14 0 -8 -4 -13 -9 -9 -5 3
-12 1 -15 -4 -4 -5 1 -8 10 -7 8 1 19 7 22 13 5 8 14 5 29 -7 12 -9 19 -21 15
-24 -3 -4 1 -4 10 -1 9 4 19 1 23 -4 3 -6 11 -8 17 -5 8 5 9 1 5 -10 -4 -10
-3 -15 3 -11 16 10 50 -5 50 -21 0 -8 5 -14 11 -14 5 0 7 5 4 10 -8 14 -4 13
41 -9 21 -11 43 -17 48 -13 5 3 7 -1 4 -10 -4 -8 0 -15 8 -15 7 0 11 4 8 9 -3
4 2 5 10 2 31 -12 209 66 310 135 27 19 46 29 42 23 -3 -6 -1 -14 5 -18 8 -4
9 -3 5 4 -9 15 51 75 66 66 6 -4 8 -3 5 3 -4 6 15 31 42 56 26 25 51 53 55 62
3 9 12 15 19 12 7 -3 13 3 14 13 2 25 53 101 64 94 5 -3 6 1 3 9 -3 8 0 18 5
22 6 3 9 11 6 16 -9 13 9 11 25 -3 13 -11 13 -11 2 2 -15 18 -16 44 0 34 7 -5
8 -3 4 5 -9 14 12 71 25 71 5 0 6 7 2 16 -4 11 1 22 12 30 11 8 13 14 6 14 -7
0 -9 5 -4 13 4 6 9 23 11 36 2 13 11 31 20 40 10 9 12 12 6 8 -9 -6 -12 1 -10
24 1 18 8 35 14 37 7 2 12 8 12 13 0 6 -4 7 -10 4 -5 -3 -10 -2 -10 4 0 5 6
12 13 14 9 4 9 6 -1 6 -7 1 -10 6 -6 13 4 6 8 27 9 45 0 19 8 39 16 45 12 8
11 9 -2 5 -12 -4 -16 2 -16 23 0 21 4 27 16 23 12 -3 11 -2 -2 7 -9 6 -15 16
-12 21 4 5 10 7 14 5 4 -3 8 1 8 8 0 8 -5 12 -12 10 -13 -5 -14 44 -1 65 6 9
5 12 0 8 -5 -3 -10 9 -10 26 -1 18 -4 45 -7 62 -4 18 -2 32 6 37 9 6 8 8 -3 8
-10 0 -15 10 -14 32 1 18 -3 39 -9 46 -6 8 -6 12 2 12 6 0 11 5 11 11 0 5 -4
8 -9 5 -5 -3 -11 1 -15 9 -3 8 -1 15 5 15 6 0 7 6 2 13 -4 6 -8 17 -10 22 -1
6 -6 25 -12 43 -5 17 -7 32 -5 32 3 0 -2 7 -10 16 -9 8 -14 19 -11 23 5 8 -99
5 -122 -3 -7 -3 -19 1 -27 9 -11 11 -16 12 -19 2 -3 -6 -6 -3 -6 8 -1 14 -4
16 -9 7 -7 -9 -19 -8 -58 5 -27 9 -55 23 -62 30 -8 7 -18 11 -23 8 -9 -6 -12
3 -12 37 0 10 -4 15 -8 12 -5 -3 -7 -10 -4 -15 4 -5 -1 -9 -10 -9 -10 0 -13 5
-9 12 4 6 3 8 -3 5 -6 -4 -35 2 -65 12 -56 19 -152 37 -177 32 -8 -1 -18 3
-22 11 -6 8 -9 9 -9 2 0 -7 -15 -12 -35 -12 -30 0 -34 2 -24 14 6 8 9 14 6 14
-3 0 -9 -5 -12 -10z"/>
<path d="M1155 1809 c-4 -6 -5 -12 -2 -15 2 -3 7 2 10 11 7 17 1 20 -8 4z"/>
<path d="M785 1799 c-3 -4 2 -6 10 -5 21 3 28 13 10 13 -9 0 -18 -4 -20 -8z"/>
<path d="M1116 1802 c-3 -5 1 -9 9 -9 8 0 12 4 9 9 -3 4 -7 8 -9 8 -2 0 -6 -4
-9 -8z"/>
<path d="M1236 1773 c-6 -14 -5 -15 5 -6 7 7 10 15 7 18 -3 3 -9 -2 -12 -12z"/>
<path d="M1330 1722 c0 -5 7 -9 15 -9 8 0 12 4 9 9 -3 4 -9 8 -15 8 -5 0 -9
-4 -9 -8z"/>
<path d="M1354 1688 c10 -6 22 -6 26 -2 5 5 -3 10 -18 11 -22 1 -24 0 -8 -9z"/>
<path d="M1415 1680 c-3 -5 -1 -10 4 -10 6 0 11 5 11 10 0 6 -2 10 -4 10 -3 0
-8 -4 -11 -10z"/>
<path d="M478 1673 c7 -3 16 -2 19 1 4 3 -2 6 -13 5 -11 0 -14 -3 -6 -6z"/>
<path d="M290 1660 c0 -5 5 -10 11 -10 5 0 7 5 4 10 -3 6 -8 10 -11 10 -2 0
-4 -4 -4 -10z"/>
<path d="M405 1660 c-16 -7 -17 -9 -3 -9 9 -1 20 4 23 9 7 11 7 11 -20 0z"/>
<path d="M1530 1659 c0 -5 5 -7 10 -4 6 3 10 8 10 11 0 2 -4 4 -10 4 -5 0 -10
-5 -10 -11z"/>
<path d="M1673 1585 c0 -8 4 -12 9 -9 5 3 6 10 3 15 -9 13 -12 11 -12 -6z"/>
<path d="M1706 1398 c3 -5 10 -6 15 -3 13 9 11 12 -6 12 -8 0 -12 -4 -9 -9z"/>
<path d="M1708 1373 c7 -3 16 -2 19 1 4 3 -2 6 -13 5 -11 0 -14 -3 -6 -6z"/>
<path d="M193 1325 c0 -8 4 -12 9 -9 5 3 6 10 3 15 -9 13 -12 11 -12 -6z"/>
<path d="M1714 1320 c0 -13 4 -16 10 -10 7 7 7 13 0 20 -6 6 -10 3 -10 -10z"/>
<path d="M186 1263 c-6 -14 -5 -15 5 -6 7 7 10 15 7 18 -3 3 -9 -2 -12 -12z"/>
<path d="M1730 1220 c0 -5 5 -10 11 -10 5 0 7 5 4 10 -3 6 -8 10 -11 10 -2 0
-4 -4 -4 -10z"/>
<path d="M1720 1082 c0 -5 7 -9 15 -9 8 0 12 4 9 9 -3 4 -9 8 -15 8 -5 0 -9
-4 -9 -8z"/>
<path d="M1720 1026 c0 -2 7 -7 16 -10 8 -3 12 -2 9 4 -6 10 -25 14 -25 6z"/>
<path d="M1734 966 c1 -8 5 -18 8 -22 4 -3 5 1 4 10 -1 8 -5 18 -8 22 -4 3 -5
-1 -4 -10z"/>
<path d="M1639 668 c-8 -31 -4 -59 9 -70 15 -11 15 -11 6 2 -7 8 -11 27 -9 43
2 15 1 27 -1 27 -2 0 -4 -1 -5 -2z"/>
<path d="M275 620 c3 -5 8 -10 11 -10 2 0 4 5 4 10 0 6 -5 10 -11 10 -5 0 -7
-4 -4 -10z"/>
<path d="M313 555 c0 -8 4 -12 9 -9 4 3 8 9 8 15 0 5 -4 9 -8 9 -5 0 -9 -7 -9
-15z"/>
<path d="M350 479 c0 -5 5 -7 10 -4 6 3 10 8 10 11 0 2 -4 4 -10 4 -5 0 -10
-5 -10 -11z"/>
<path d="M410 399 c0 -5 5 -7 10 -4 6 3 10 8 10 11 0 2 -4 4 -10 4 -5 0 -10
-5 -10 -11z"/>
<path d="M446 362 c-3 -5 1 -9 9 -9 8 0 12 4 9 9 -3 4 -7 8 -9 8 -2 0 -6 -4
-9 -8z"/>
<path d="M1426 342 c-3 -5 1 -9 9 -9 8 0 12 4 9 9 -3 4 -7 8 -9 8 -2 0 -6 -4
-9 -8z"/>
<path d="M1399 328 c-5 -18 -6 -38 -1 -34 7 8 12 36 6 36 -2 0 -4 -1 -5 -2z"/>
<path d="M1336 247 c3 -10 9 -15 12 -12 3 3 0 11 -7 18 -10 9 -11 8 -5 -6z"/>
<path d="M1236 183 c-6 -14 -5 -15 5 -6 7 7 10 15 7 18 -3 3 -9 -2 -12 -12z"/>
<path d="M675 160 c3 -5 8 -10 11 -10 2 0 4 5 4 10 0 6 -5 10 -11 10 -5 0 -7
-4 -4 -10z"/>
<path d="M1186 158 c3 -5 10 -6 15 -3 13 9 11 12 -6 12 -8 0 -12 -4 -9 -9z"/>
<path d="M773 127 c0 -8 6 -14 14 -14 9 0 10 4 2 14 -14 16 -16 16 -16 0z"/>
<path d="M1115 120 c-3 -5 -1 -10 4 -10 6 0 11 5 11 10 0 6 -2 10 -4 10 -3 0
-8 -4 -11 -10z"/>
<path d="M870 91 c0 -6 4 -13 10 -16 6 -3 7 1 4 9 -7 18 -14 21 -14 7z"/>
<path d="M1056 78 c3 -4 11 -5 19 -1 21 7 19 12 -4 10 -11 0 -18 -5 -15 -9z"/>
<path d="M993 65 c0 -8 4 -12 9 -9 5 3 6 10 3 15 -9 13 -12 11 -12 -6z"/>
</g>
</svg>
